<svg xmlns="http://www.w3.org/2000/svg" viewBox="0 0 339.73 39.95"><defs><style>.cls-1{fill:#fff;}</style></defs><title>Alpine-Logo</title><g id="Layer_2" data-name="Layer 2"><g id="Layer_1-2" data-name="Layer 1"><path class="cls-1" d="M137.11,5.29A18.3,18.3,0,0,1,150,.05h5.15V40H146.2V8.28l-31,31.66h-12Z"/><polygon class="cls-1" points="158.09 39.95 158.09 0.05 166.99 0.06 166.99 32.02 189.55 32.02 189.55 39.95 158.09 39.95"/><rect class="cls-1" x="233.8" y="0.01" width="9.3" height="39.89"/><path class="cls-1" d="M278.38,28V0h8.82V39.91H276.7l-22-28.14V39.91h-8.77V0h4.61a10.84,10.84,0,0,1,8.89,4.46Z"/><path class="cls-1" d="M299.7,15.83H324v7.52H299.7v8.92H328v7.66H290.1V8.46A8.49,8.49,0,0,1,298.63.07H328v7.3H299.7Z"/><polygon class="cls-1" points="9.41 39.92 0 39.91 38.92 0.03 48.33 0.03 9.41 39.92"/><polygon class="cls-1" points="29.86 39.92 20.45 39.92 59.37 0.03 68.78 0.04 29.86 39.92"/><polygon class="cls-1" points="50.31 39.92 40.9 39.92 79.82 0.04 89.23 0.04 50.31 39.92"/><polygon class="cls-1" points="70.75 39.93 61.35 39.93 100.27 0.04 109.68 0.04 70.75 39.93"/><polygon class="cls-1" points="91.2 39.93 81.8 39.93 120.72 0.05 130.13 0.05 91.2 39.93"/><path class="cls-1" d="M221.84,0h-30l0,39.89h9V25.41h20.94c5.77-.31,9.09-3.14,9.35-10.61V10.62C230.92,3.15,227.61.32,221.84,0Zm1.21,15.27c0,1.5-1.84,2.56-3.46,2.69H200.87V7.44h18.79c1.62.08,3.38,1.19,3.38,2.64Z"/><path class="cls-1" d="M333,36.26a3,3,0,1,1,3,3.09A3,3,0,0,1,333,36.26ZM336,40a3.68,3.68,0,1,0-3.75-3.69A3.68,3.68,0,0,0,336,40Zm-.78-3.4H336l1.12,1.85h.72l-1.21-1.88a1.11,1.11,0,0,0,1.1-1.17c0-.83-.5-1.2-1.5-1.2h-1.61V38.4h.64Zm0-.54V34.69h.87c.45,0,.93.1.93.62s-.49.7-1,.7Z"/></g></g></svg>